<svg xmlns="http://www.w3.org/2000/svg" viewBox="0 0 64 64">
  <path
    d="M32 6L50 12.5V28C50 41.2 40.3 52.9 32 57.6C23.7 52.9 14 41.2 14 28V12.5L32 6Z"
    fill="#0B1220"
  />
  <path
    d="M28.6 30.8V28.9C28.6 26.9 30.2 25.3 32.2 25.3C34.2 25.3 35.8 26.9 35.8 28.9V30.8M27 30.8H37.4C38 30.8 38.5 31.3 38.5 31.9V38.2C38.5 38.8 38 39.3 37.4 39.3H27C26.4 39.3 25.9 38.8 25.9 38.2V31.9C25.9 31.3 26.4 30.8 27 30.8Z"
    fill="none"
    stroke="#ffffff"
    stroke-width="2.4"
    stroke-linecap="round"
    stroke-linejoin="round"
  />
</svg>
