<svg xmlns="http://www.w3.org/2000/svg" viewBox="0 0 64 64">
  <defs>
    <linearGradient id="cv-grad" x1="10" y1="8" x2="54" y2="56" gradientUnits="userSpaceOnUse">
      <stop offset="0" stop-color="#10b981" />
      <stop offset="1" stop-color="#047857" />
    </linearGradient>
  </defs>
  <rect x="6" y="6" width="52" height="52" rx="14" fill="url(#cv-grad)" />
  <path
    d="M32 17l11 4v9.3c0 8-5.8 15.1-11 18.3-5.2-3.2-11-10.3-11-18.3V21l11-4z"
    fill="none"
    stroke="#ffffff"
    stroke-width="2.6"
    stroke-linecap="round"
    stroke-linejoin="round"
  />
  <path
    d="M29.7 33.7v-1.5a2.5 2.5 0 115 0v1.5M28.8 33.7h6.8c.7 0 1.2.5 1.2 1.2v4.1c0 .7-.5 1.2-1.2 1.2h-6.8c-.7 0-1.2-.5-1.2-1.2v-4.1c0-.7.5-1.2 1.2-1.2z"
    fill="none"
    stroke="#ffffff"
    stroke-width="2.2"
    stroke-linecap="round"
    stroke-linejoin="round"
  />
</svg>
